<svg height="511pt" viewBox="1 1 511.99909 511" width="511pt" xmlns="http://www.w3.org/2000/svg"><g fill-rule="evenodd"><path d="m502 256.5c0 135.863281-110.136719 246-246 246s-246-110.136719-246-246 110.136719-246 246-246 246 110.136719 246 246zm0 0" fill="#1cd3fb"/><path d="m189.613281 305.90625c38.644531-3.363281 21.605469-30.605469 69.238281.675781 20.464844 13.4375 6.035157 26.242188 30.660157 29.9375 21.027343 3.15625 7.792969 5.296875 30.078125 25.335938 17.972656 16.160156 19.863281-2.574219 29.582031 4.785156 17.496094 13.25 23.738281-3.238281 30.789063-2.9375 25.472656 1.089844 7.710937-19.636719 21.941406-27.582031 8.621094-4.816406 12.949218-14.992188 18.90625-25.339844 5.824218-10.113281 13.355468-20.367188 15.667968-28.007812 6.929688-22.90625-7.636718-63.328126-20.070312-81.964844-16.726562-25.070313-38.28125-43.6875-37.15625-55 4.207031-42.335938-14.65625-7.507813-14.65625-39.742188 0-36.214844-28.527344-33.734375-24.644531-2.148437 1.582031 12.839843-5.15625 18.957031-3.035157 26.667969 3.382813 12.332031-8.832031 25.339843-12.761718 21.667968-.453125-.421875-14.976563-12.722656-15.824219-13.191406-6.632813-3.691406-21.128906-5.578125-22.347656-9.964844-2.296875-8.277344 3.480469-16.152344 7.191406-20.253906 11.570313-12.78125-33.800781-20.324219-41.273437-20.726562-10.890626-.589844-13.980469 5.789062-19.179688 9.492187-22.070312 15.722656-7.082031 9.859375-11.417969 26.71875-22.035156 9.722656-14.65625-9.101563-30.800781-8.464844-16.140625.636719-19.960938 29.289063-30.425781 23.949219-11.820313-6.03125-16.792969 8.074219-10.789063 13.5625 14.464844 13.238281-26.96875 36.210938-33.742187 37.550781-52.550781 10.386719-46.761719 29.609375-29.953125 75.886719 4.203125 11.558594 14.054687 23.382812 16.921875 32.996094 2.75 9.21875-1.417969 16.328125-.398438 23.195312 1.519531 10.226563 10.894531 12.105469 19.429688 12.398438 21.726562.738281 19.398437-19.152344 31.011719-14.363282 36.277343 14.960938 17.003906-13.386718 37.058593-15.132812zm0 0" fill="#009d86"/><path d="m367.121094 400.449219c-10.503906-.765625-22.367188-4.082031-18.417969 8.171875 3.296875 10.226562 2.117187 16.332031 11.992187 23.449218 5.453126 3.933594 15.597657-1.277343 18.375-7.71875 3.699219-8.578124 6.757813-11.824218 5.085938-21.527343-1.285156-7.453125-7.730469-1.699219-17.035156-2.375zm0 0" fill="#009d86"/><path d="m166 307.179688 47.59375-49.949219c11.070312-11.839844 30.214844-11.460938 41.675781 0 11.460938 11.460937 11.816407 30.582031 0 41.675781l-49.675781 47.59375 41.222656 115.316406-27.222656 27.222656-67.621094-91.167968-43.574218 40.972656 2.933593 40.742188-22.914062 22.914062-25.699219-52.714844-52.71875-25.703125 22.910156-22.914062 40.746094 2.933593 40.96875-43.574218-91.164062-67.621094 27.222656-27.222656zm0 0" fill="#e6e6e6"/></g><path d="m437.019531 75.480469c-48.351562-48.351563-112.640625-74.980469-181.019531-74.980469-53.925781 0-105.511719 16.582031-149.1875 47.953125-4.484375 3.222656-5.507812 9.472656-2.285156 13.957031 3.21875 4.484375 9.46875 5.507813 13.953125 2.289063 40.253906-28.917969 87.808593-44.199219 137.519531-44.199219 130.128906 0 236 105.867188 236 236 0 49.710938-15.285156 97.265625-44.199219 137.515625-3.222656 4.488281-2.199219 10.734375 2.289063 13.957031 1.765625 1.269532 3.804687 1.878906 5.824218 1.878906 3.113282 0 6.179688-1.449218 8.132813-4.167968 31.371094-43.671875 47.953125-95.261719 47.953125-149.183594 0-68.382812-26.628906-132.667969-74.980469-181.019531zm0 0"/><path d="m405.308594 350.980469c.273437-5.460938.648437-5.667969 1.46875-6.128907 9.617187-5.371093 14.785156-14.769531 19.785156-23.859374.945312-1.71875 1.902344-3.46875 2.914062-5.21875 1.71875-2.988282 3.65625-6.085938 5.53125-9.082032 4.660157-7.445312 9.0625-14.480468 11.039063-21.023437 7.9375-26.238281-7.28125-69.363281-21.320313-90.40625-6.582031-9.871094-13.765624-18.636719-20.105468-26.371094-6.039063-7.371094-15.152344-18.492187-15.410156-22.1875 1.582031-15.976563 1.734374-31.726563-14.222657-34.425781-.199219-1.1875-.394531-3.140625-.394531-6.210938 0-16.789062-5.511719-29.304687-15.117188-34.339844-6.1875-3.242187-13.300781-2.8125-19.027343 1.152344-8.429688 5.828125-12.226563 17.585938-10.421875 32.257813.574218 4.664062-.417969 7.964843-1.5625 11.785156-1.320313 4.402344-2.960938 9.882813-1.195313 16.3125.691407 2.519531-.25 5.269531-1.429687 7.292969-4.65625-3.96875-11.035156-9.308594-12.652344-10.207032-3.507812-1.953124-7.839844-3.285156-12.03125-4.570312-1.664062-.515625-3.871094-1.191406-5.550781-1.808594.488281-2.378906 2.222656-5.339844 4.980469-8.386718 4.40625-4.871094 5.628906-10.835938 3.351562-16.367188-2.992188-7.273438-11.363281-12.398438-27.136719-16.621094-9.96875-2.667968-20.429687-4.222656-24.363281-4.4375-12.457031-.679687-18.761719 5.203125-22.933594 9.089844-.988281.917969-1.84375 1.714844-2.585937 2.246094-12.332031 8.78125-19.667969 14.761718-15.339844 26.5.136719.363281.257813.699218.355469 1.046875-.226563.042969-.414063.070312-.5625.085937-.320313-.367187-.734375-.894531-1.070313-1.316406-2.863281-3.628906-8.183593-10.382812-20.191406-9.914062-13.484375.53125-20.847656 11.855468-25.71875 19.351562-.851563 1.308594-1.976563 3.039062-2.925781 4.328125-9.339844-3.269531-17.261719.585937-21.273438 6.371094-5.269531 7.597656-4.414062 18.175781 1.875 24.386719-.882812 1.789062-4.011718 5.929687-12.015625 11.5625-7.566406 5.324218-14.835937 8.746093-16.601562 9.277343-25.207031 5-38.808594 12.179688-45.476563 24-8.570312 15.195313-2.828125 34.355469 5.730469 58.195313l-19.636719-7.066406c-3.644531-1.3125-7.71875-.398438-10.457031 2.339843l-22.363281 22.359375c-.824219-8.078125-1.246094-16.242187-1.246094-24.472656 0-49.71875 15.285156-97.273438 44.199219-137.523438 3.222656-4.484374 2.199219-10.730468-2.285157-13.953124-4.484374-3.222657-10.734374-2.199219-13.957031 2.285156-31.371093 43.667968-47.957031 95.257812-47.957031 149.191406 0 48.304688 13.242188 94.582031 38.476562 135.042969l-4.847656-.347657c-2.898437-.203124-5.734375.851563-7.789062 2.902344l-22.910156 22.914063c-2.285157 2.285156-3.324219 5.53125-2.792969 8.722656.535156 3.1875 2.574219 5.917969 5.480469 7.335937l49.617187 24.191407 24.195313 49.621093c1.414062 2.902344 4.148437 4.945313 7.335937 5.480469.550781.089844 1.101563.136719 1.652344.136719 2.628906 0 5.179687-1.039062 7.070312-2.929688l22.910157-22.914062c2.054687-2.050781 3.113281-4.894531 2.902343-7.789062l-.347656-4.847657c40.46875 25.234375 86.742187 38.476563 135.046875 38.476563 53.929688 0 105.519531-16.582032 149.191406-47.957032 4.484375-3.222656 5.507813-9.46875 2.285156-13.953124-3.222656-4.488282-9.472656-5.507813-13.957031-2.289063-40.246093 28.917969-87.800781 44.203125-137.519531 44.203125-8.230469 0-16.394531-.425781-24.476562-1.25l22.363281-22.363281c2.734375-2.730469 3.644531-6.796875 2.34375-10.4375l-39.039063-109.210938 35.949219-34.441406c.074219.046875.144531.09375.222656.144531 6.425781 4.222656 7.671875 7.664063 9.25 12.03125 3.152344 8.707032 7.464844 16.742188 25.414063 19.4375 4.859375.726563 6.742187 1.269532 7.445312 1.535156.230469.375.5625.957032.847656 1.457032 2.175782 3.816406 5.816407 10.207031 16.582032 19.890625 13.859375 12.460937 23.542968 10.097656 31.1875 6.144531.03125-.015625.0625-.03125.097656-.050781 6.609375 4.738281 12.472656 6.375 17.5 6.375 8.179688 0 14.125-4.351563 17.398438-6.746094.566406-.414063 1.277343-.933594 1.804687-1.28125.277344.003906.550781.007813.820313.007813 22.464843 0 23.253906-15.867188 23.597656-22.761719zm-379.96875-44.230469 74.304687 55.113281-30.015625 31.921875-5.902344-.425781c-18.746093-26.265625-31.6875-55.585937-38.386718-86.609375zm93.796875 142.023438-.421875-5.902344 31.917968-30.015625 55.117188 74.304687c-31.023438-6.703125-60.34375-19.640625-86.613281-38.386718zm77.039062-98.90625 39.09375 109.355468-14.550781 14.546875-60.71875-81.855469c-1.699219-2.292968-4.296875-3.746093-7.140625-4.003906-2.851563-.25-5.660156.722656-7.738281 2.675782l-43.574219 40.972656c-2.191406 2.0625-3.339844 5-3.125 8.003906l2.605469 36.183594-9.765625 9.765625-19.558594-40.113281c-.976563-2.003907-2.601563-3.625-4.605469-4.605469l-40.113281-19.554688 9.765625-9.765625 36.1875 2.601563c3.003906.214843 5.941406-.929688 8.003906-3.125l40.972656-43.570313c1.953126-2.078125 2.925782-4.894531 2.671876-7.738281-.253907-2.84375-1.707032-5.441406-4-7.144531l-81.855469-60.714844 14.539062-14.539062 35.921875 12.925781h.003906l73.417969 26.417969c3.730469 1.34375 7.894531.355468 10.625-2.507813l47.660157-50.019531c3.277343-3.503906 7.847656-5.480469 12.871093-5.566406 5.371094-.101563 10.648438 2.027343 14.429688 5.808593 3.769531 3.769531 5.882812 9.011719 5.800781 14.386719-.082031 5.039062-2.058594 9.628906-5.574219 12.929688-.023437.023437-.046875.046874-.074219.066406l-49.675781 47.597656c-2.847656 2.726562-3.828125 6.871094-2.5 10.585938zm189.160157.121093c-.054688 1.066407-.128907 2.535157-.265626 3.496094-.769531.160156-2.21875.332031-4.683593.230469-5.730469-.257813-9.988281 2.878906-13.105469 5.160156-4.609375 3.371094-6 4.390625-12.070312-.207031-9.023438-6.832031-16.929688-2.742188-20.308594-.996094-.722656.375-1.816406.9375-2.144532.976563-.019531 0-1.894531-.101563-6.480468-4.230469-8.363282-7.519531-10.800782-11.792969-12.578125-14.917969-4.792969-8.414062-9.039063-10.820312-22.703125-12.871094-7.652344-1.148437-7.90625-1.855468-9.574219-6.460937-1.851563-5.121094-4.589844-12.628907-14.191406-19.894531 4.277343-6.140626 6.640625-13.472657 6.761719-21.273438.171874-10.753906-4.074219-21.269531-11.652344-28.84375-7.589844-7.589844-18.125-11.839844-28.90625-11.660156-10.492188.175781-20.132813 4.402344-27.082032 11.832031l-43.097656 45.234375-63.820312-22.964844c-1.746094-3.09375-3.363282-6.238281-4.441406-9.203125-9-24.765625-14.132813-40.382812-9.597657-48.421875 3.371094-5.980468 13.867188-10.640625 32.085938-14.238281 7.476562-1.480469 39.109375-17.863281 44.101562-35.695313 1.476563-5.277343.722657-10.484374-2.042969-14.882812 4.832032 1.035156 9.742188-.378906 13.925782-4.128906 3.011718-2.703125 5.285156-6.203125 7.695312-9.910156 2.9375-4.515626 6.59375-10.140626 9.734375-10.265626 1.824219-.070312 1.824219-.070312 3.710938 2.320313 5.734375 7.265625 13.429687 12.9375 30.734375 5.300781 2.800781-1.238281 4.882812-3.691406 5.644531-6.65625 1.890625-7.355468 1.101563-12.265625.148437-15.457031 1.308594-1.113281 3.546876-2.871094 7.386719-5.605469 1.8125-1.292968 3.304688-2.679687 4.617188-3.90625 3.097656-2.882812 4.257812-3.960937 8.21875-3.75 6.925781.375 23.925781 4.078125 31.449219 7.601563-6.480469 8.609375-8.773438 17.738281-6.457032 26.070312 2.207032 7.949219 10.707032 10.5625 18.929688 13.09375 2.785156.855469 5.90625 1.816407 7.707031 2.6875 2.582031 2.050781 13.0625 10.898438 14.464844 12.125 3.449219 3.128907 9.515625 4.964844 16.359375.828125 8.945312-5.40625 16.359375-19.394531 12.746094-32.566406-.246094-.890625.363281-2.921875 1.066406-5.277344 1.410156-4.699218 3.339844-11.136718 2.253906-19.964844-.832031-6.757812.320312-10.636718 1.222656-12.355468 1.371094 1.816406 3.496094 6.453125 3.496094 15.726562 0 11.316406 1.84375 23.109375 15.121094 25.628906.207031 2.039063.296875 5.957032-.417969 13.125-1.109375 11.164063 7.683594 21.894532 19.855469 36.746094 6.046875 7.378906 12.898437 15.738282 18.9375 24.792969 11.515625 17.261719 24.570312 54.484375 18.8125 73.519531-1.207032 3.988282-5.09375 10.199219-8.851563 16.207032-1.96875 3.144531-4.003906 6.402343-5.90625 9.707031-1.078125 1.867187-2.101562 3.730469-3.109375 5.558593-3.972656 7.226563-7.402344 13.464844-12.011718 16.039063-10.867188 6.070313-11.402344 16.820313-11.6875 22.597656zm0 0"/><path d="m388.125 391.285156c-4.917969-3.363281-10.191406-2.296875-14.042969-1.515625-2.160156.4375-4.195312.851563-6.234375.703125-1.386718-.101562-2.832031-.253906-4.359375-.414062-7.882812-.84375-16.820312-1.792969-22.382812 5.050781-3.449219 4.242187-4.09375 9.820313-1.917969 16.582031.6875 2.125 1.167969 4.136719 1.628906 6.078125 1.664063 6.964844 3.550782 14.859375 14.03125 22.414063 2.988282 2.152344 6.558594 3.253906 10.402344 3.253906 1.925781 0 3.921875-.277344 5.945312-.835938 7.515626-2.078124 14.210938-7.6875 17.058594-14.289062.652344-1.511719 1.292969-2.867188 1.914063-4.175781 2.945312-6.210938 5.726562-12.078125 3.839843-23.011719-.753906-4.371094-2.730468-7.683594-5.882812-9.839844zm-16.027344 24.28125c-.664062 1.402344-1.417968 2.988282-2.210937 4.828125-.472657 1.101563-2.710938 2.660157-4.132813 2.976563-3.71875-2.855469-4.171875-4.753906-5.484375-10.25-.25-1.054688-.519531-2.179688-.832031-3.378906.679688.066406 1.34375.136718 1.929688.199218 1.628906.175782 3.308593.355469 5.03125.480469 2.988281.214844 5.667968-.019531 7.964843-.371094-.367187 1.511719-1.113281 3.082031-2.265625 5.515625zm0 0"/><path d="m82.050781 92.550781c2.722657 0 5.433594-1.105469 7.40625-3.277343 3.714844-4.085938 3.414063-10.410157-.671875-14.125-4.089844-3.714844-10.414062-3.414063-14.128906.671874l-.003906.007813c-3.714844 4.085937-3.410156 10.40625.675781 14.121094 1.914063 1.742187 4.324219 2.601562 6.722656 2.601562zm0 0"/><path d="m422.882812 423.375-.003906.003906c-3.90625 3.90625-3.902344 10.234375 0 14.140625 1.953125 1.949219 4.511719 2.925781 7.070313 2.925781 2.5625 0 5.125-.976562 7.074219-2.929687 3.90625-3.90625 3.90625-10.238281 0-14.144531-3.902344-3.902344-10.234376-3.902344-14.140626.003906zm0 0"/></svg>